<svg xmlns="http://www.w3.org/2000/svg" width="865.76" height="682.89" viewBox="0 0 865.76 682.89"><ellipse cx="371.02" cy="612.36" rx="285.9" ry="44.84" transform="translate(-12.89 8) rotate(-1.21)" fill="#393d4e"/><path d="M776.56,425.92s93.93-88.63,42.32-206.32c-14.34-32.71-37.52-60.75-66.36-81.8C687.94,90.65,524.51-2.66,278.67,33.38a183.48,183.48,0,0,0-74,27.8c-36.08,23.67-74.33,67.15-58.06,141.65,5.75,26.34,4.45,53.8-5,79-9.39,25-27.18,55.64-60.29,88.75,0,0-70.57,68.17-1.92,127.17A125.31,125.31,0,0,0,130,523.86C215.63,545.8,561.75,618.54,776.56,425.92Z" fill="#393d4e"/><ellipse cx="371.02" cy="612.36" rx="285.9" ry="44.84" transform="translate(-12.89 8) rotate(-1.21)" fill="#fff" opacity="0.7"/><path d="M776.56,425.92s93.93-88.63,42.32-206.32c-14.34-32.71-37.52-60.75-66.36-81.8C687.94,90.65,524.51-2.66,278.67,33.38a183.48,183.48,0,0,0-74,27.8c-36.08,23.67-74.33,67.15-58.06,141.65,5.75,26.34,4.45,53.8-5,79-9.39,25-27.18,55.64-60.29,88.75,0,0-70.57,68.17-1.92,127.17A125.31,125.31,0,0,0,130,523.86C215.63,545.8,561.75,618.54,776.56,425.92Z" fill="#fff" opacity="0.7"/><path d="M704.66,366.41H310.58a17.48,17.48,0,0,1-17.25-20.3L330,121.73a21.87,21.87,0,0,1,21.58-18.34H747.8a17.13,17.13,0,0,1,16.89,20l-38,224.43A22.33,22.33,0,0,1,704.66,366.41Z" fill="#2e3135"/><path d="M696.3,371.05H302.23A17.48,17.48,0,0,1,285,350.75l36.69-224.38A21.87,21.87,0,0,1,343.25,108h396.2a17.13,17.13,0,0,1,16.89,20l-38,224.43A22.34,22.34,0,0,1,696.3,371.05Z" fill="#3f4347"/><path d="M689.78,361.61H310.4c-10.38,0-18.28-8.86-16.61-18.62l35.33-205.83c1.66-9.69,10.46-16.82,20.77-16.82H731.32c10.2,0,18,8.75,16.25,18.34L711,344.55C709.22,354.4,700.27,361.61,689.78,361.61Z" opacity="0.2"/><path d="M689.78,357.28H310.4c-10.38,0-18.28-8.87-16.61-18.62l35.33-205.83c1.66-9.7,10.46-16.82,20.77-16.82H731.32c10.2,0,18,8.75,16.25,18.34L711,340.22C709.22,350.07,700.27,357.28,689.78,357.28Z" fill="#fff"/><polygon points="539.72 160.33 609.8 160.33 582.73 323.7 572.83 323.7 510.63 248.51 447.97 249.13 447.97 236.65 515.91 236.65 572.83 303.59 575.92 303.59 598.2 172.7 539.72 172.7 539.72 160.33" fill="#1d90f4"/><path d="M749.57,227.78H635.06a11.57,11.57,0,0,1-11.37-13.71l21.1-111.43A16.73,16.73,0,0,1,661.44,89l116.2,1.54a8.77,8.77,0,0,1,8.53,10.24l-19,112.08A17.86,17.86,0,0,1,749.57,227.78Z" fill="#fff"/><path d="M749.57,228.78H635.06a12.57,12.57,0,0,1-12.35-14.9l21.1-111.42A17.68,17.68,0,0,1,661.21,88h.24l116.2,1.54a9.77,9.77,0,0,1,9.51,11.4l-19,112.09A18.82,18.82,0,0,1,749.57,228.78ZM661.21,90a15.7,15.7,0,0,0-15.44,12.8L624.68,214.25a10.55,10.55,0,0,0,10.38,12.53H749.57a16.83,16.83,0,0,0,16.64-14.05l19-112.09a7.76,7.76,0,0,0-7.56-9.07L661.43,90Z" fill="#393d4e"/><path d="M674,130.31s24.14,0,38.37-11.14c0,0,6.67,9.29,32.89,11.14,0,0-9.37,60-53,70.24,0,0-18.43-2.79-22.13-26.68a39.92,39.92,0,0,1-.45-6.64A181.84,181.84,0,0,1,674,130.31Z" fill="#393d4e"/><path d="M677.11,134.33s20.11.62,34.34-9.59c0,0,5.74,8.06,28.4,9.6,0,0-6.12,48.57-46.35,62.19C693.5,196.53,662.87,188.48,677.11,134.33Z" fill="#fff" opacity="0.5"/><ellipse cx="701.92" cy="161.74" rx="16.39" ry="13.55" transform="translate(185.19 663.58) rotate(-57.14)" fill="#fff"/><path d="M700.62,168.09a2.5,2.5,0,0,1-1.62-.6l-8.41-7.18a2.5,2.5,0,1,1,3.24-3.8l6.66,5.68A131.92,131.92,0,0,1,720,146.46a2.5,2.5,0,0,1,2.69,4.21,130.24,130.24,0,0,0-20.28,16.66A2.51,2.51,0,0,1,700.62,168.09Z" fill="#1d90f4"/><ellipse cx="435.91" cy="242.98" rx="22.89" ry="20.41" transform="translate(-3.51 479.55) rotate(-57.43)" fill="#393d4e"/><ellipse cx="435.54" cy="242.8" rx="10.68" ry="9.85" transform="translate(45.94 554.02) rotate(-67.76)" opacity="0.2"/><ellipse cx="512.96" cy="242.98" rx="22.89" ry="20.41" transform="translate(-0.78 484.3) rotate(-50.51)" fill="#393d4e"/><ellipse cx="512.61" cy="242.76" rx="10.68" ry="9.85" transform="translate(50.81 572.05) rotate(-60.83)" opacity="0.2"/><ellipse cx="591.86" cy="242.98" rx="22.89" ry="20.41" transform="translate(27.94 545.2) rotate(-50.51)" fill="#393d4e"/><ellipse cx="591.51" cy="242.76" rx="10.68" ry="9.85" transform="translate(91.26 640.95) rotate(-60.83)" opacity="0.2"/><ellipse cx="422.29" cy="318.48" rx="22.89" ry="20.41" transform="translate(-73.43 502.94) rotate(-57.43)" fill="#393d4e"/><ellipse cx="421.92" cy="318.3" rx="10.67" ry="9.84" transform="translate(-32.41 588.33) rotate(-67.76)" opacity="0.2"/><ellipse cx="499.34" cy="318.48" rx="22.89" ry="20.41" transform="translate(-64 501.28) rotate(-50.51)" fill="#393d4e"/><ellipse cx="498.95" cy="318.26" rx="10.67" ry="9.84" transform="translate(-22.12 598.83) rotate(-60.83)" opacity="0.2"/><ellipse cx="578.15" cy="318.48" rx="22.88" ry="20.4" transform="translate(-35.31 562.1) rotate(-50.51)" fill="#393d4e"/><ellipse cx="577.81" cy="318.26" rx="10.67" ry="9.84" transform="matrix(0.49, -0.87, 0.87, 0.49, 18.3, 667.69)" opacity="0.2"/><ellipse cx="448.29" cy="167.48" rx="22.89" ry="20.41" transform="translate(65.83 455.12) rotate(-57.43)" fill="#393d4e"/><ellipse cx="447.91" cy="167.3" rx="10.68" ry="9.85" transform="translate(123.52 518.56) rotate(-67.76)" opacity="0.2"/><ellipse cx="525.33" cy="167.48" rx="22.89" ry="20.41" transform="translate(61.99 466.37) rotate(-50.51)" fill="#393d4e"/><ellipse cx="524.99" cy="167.25" rx="10.68" ry="9.85" transform="translate(123.08 544.16) rotate(-60.83)" opacity="0.2"/><ellipse cx="604.24" cy="167.48" rx="22.89" ry="20.41" transform="translate(90.71 527.26) rotate(-50.51)" fill="#393d4e"/><ellipse cx="603.89" cy="167.25" rx="10.68" ry="9.85" transform="translate(163.53 613.06) rotate(-60.83)" opacity="0.2"/><path d="M375.54,434.5a98.46,98.46,0,0,1-49.09,47l-39.22,17.23c-55.86,24.47-65.14,11.14-65.29,10.92.39.19,32.91,15.07,76.37-33h0a226.31,226.31,0,0,0,18.31-23.33s25.37-29.7,56-33.72c0,0,6.43.85,7.54-1.32C380.54,422.42,378.58,428.23,375.54,434.5Z" fill="#1d90f4"/><path d="M375.54,434.5a98.46,98.46,0,0,1-49.09,47l-39.22,17.23c-55.86,24.47-65.14,11.14-65.29,10.92.39.19,32.91,15.07,76.37-33h0a226.31,226.31,0,0,0,18.31-23.33s25.37-29.7,56-33.72c0,0,6.43.85,7.54-1.32C380.54,422.42,378.58,428.23,375.54,434.5Z" opacity="0.4"/><path d="M354.37,587.34l-4.88-108.92-18.25-38.91s20.35-17.41,41.39-19.88a15.07,15.07,0,0,0,7.54-1.32,217.83,217.83,0,0,1,2.05,35l0,134S369.84,598.17,354.37,587.34Z" fill="#f7a48b"/><path d="M354.37,587.34s-13.92,16.71-10.52,21.35L413.47,639s7.74-11.14-4-23.51c0,0-25-15.79-27.2-28.16C382.25,587.34,368.91,598.17,354.37,587.34Z" fill="#393d4e"/><path d="M354.37,587.34s-13.92,16.71-10.52,21.35L413.47,639s7.74-11.14-4-23.51c0,0-25-15.79-27.2-28.16C382.25,587.34,368.91,598.17,354.37,587.34Z" opacity="0.2"/><path d="M343.85,608.69s-3.09,4.33.62,6.81l62.19,26.92s5,1.23,6.81-3.41Z" fill="#1d90f4"/><path d="M302.23,468.62s13.14-1.26,16.85,19.14c0,0,9.89,32.18,34.3,53.21L401,592.6s14.84,0,25-10.84c0,0-51.46-76.14-61.88-99.09a142.38,142.38,0,0,1-10.82-20.55s-1.94-16.9-22.1-27.18c0,0-13.33,10.85-19.11,20.22a74.58,74.58,0,0,1-4.54,6.58Z" fill="#f9b499"/><path d="M380.17,418.31c-1.11,2.17-7.54,1.32-7.54,1.32-30.64,4-56,33.72-56,33.72a226.31,226.31,0,0,1-18.31,23.33h0c-43.46,48.06-76,33.18-76.37,33h0c-.66-28.49-12.65-61.18-19.59-77.82a142.66,142.66,0,0,1-9.94-37.05c-2.88-22.9,1.06-31.49,1.06-31.49l54.15-11.14L282.27,341c-1.85,25.07,46.11,46.73,46.11,46.73,13.68,6.43,40.15,20.55,46.95,24.19a12.17,12.17,0,0,1,3.73,3C380.32,416.53,380.54,417.59,380.17,418.31Z" fill="#1d90f4"/><path d="M266.4,461.37c8.71,3.74,20.5,9.12,31.91,15.31h0c-43.73,48.35-76.37,33-76.37,33-.66-28.49-12.65-61.18-19.59-77.82a142.66,142.66,0,0,1-9.94-37.05c-2.88-22.9,1.06-31.49,1.06-31.49l54.15-11.14L282.27,341s-2.95,18.88-18.18,30c0,0,25,9.28,45.72,34,0,0-65.29-40.53-87.56-22,0,0-18.6,19,7.6,50.95A96.53,96.53,0,0,0,266.4,461.37Z" opacity="0.2"/><path d="M313.53,281l6.5,7.43s37.13-5.26,65.9-16.09l15.68-14.82S413,244.2,420.51,243a1.45,1.45,0,0,1,1.63,1.2h0a1.45,1.45,0,0,1-.53,1.4c-2.39,1.88-10.27,8.25-12,11.88L411,259s9.11-9.11,17.07-10.86a1.75,1.75,0,0,1,2.11,1.71h0a1.74,1.74,0,0,1-.85,1.5c-2.86,1.71-12.1,7.43-13.81,10.91a.9.9,0,0,0,0,.83h0a.92.92,0,0,0,1.28.4l14.48-7.9a2.08,2.08,0,0,1,2.74.69h0a2.08,2.08,0,0,1-.81,3l-11.38,5.76a1,1,0,0,0-.3,1.57h0a1,1,0,0,0,1,.28l6.48-1.64a1.61,1.61,0,0,1,1.93,1.07h0a1.61,1.61,0,0,1-1.14,2c-3.78,1-12.89,3.66-15.62,8A18.06,18.06,0,0,1,413,278c-2.64,3.2-11.29,12.56-22.07,12.56,0,0-68.07,37.75-82.61,22.58L293.57,301S307.18,300,313.53,281Z" fill="#f9b499"/><path d="M313.53,281l6.5,7.43s-1.83,18.49-16,21.24L293.57,301S306.56,296.94,313.53,281Z" fill="#f7a48b"/><path d="M275,230.39s7.61-2.61,16.59,19.67l22,30.94s-3.72,16.46-20,20l-7-17.11.7-9.37Z" fill="#393d4e"/><path d="M275,230.39s7.61-2.61,16.59,19.67l22,30.94s-3.72,16.46-20,20l-7-17.11.7-9.37Z" fill="#fff" opacity="0.5"/><path d="M385.93,272.34s-2.16,12.69,6.19,12.38c0,0,7.61-.74,11-12.05a17.58,17.58,0,0,1,10.18-11.36,16.22,16.22,0,0,1,2.36-.74,1.71,1.71,0,0,0,1.32-1.66h0a1.71,1.71,0,0,0-1.4-1.68c-3.36-.61-12-1.6-16.91,3Z" fill="#f7a48b"/><path d="M209.25,222.21l-18.56,10.1s-10.06,4.6-5,25.21c0,0-2.3,10.42,6.62,34.13a79,79,0,0,1,5,29.34,305.29,305.29,0,0,1-3.89,42.32S268,383.11,282.27,341l5-66.52S279.43,238,275,230.39c0,0-22.08-7.19-27.65-9.85Z" fill="#393d4e"/><path d="M724.14,486.68V606.31a8.26,8.26,0,0,1-8.26,8.26H550.46a8.26,8.26,0,0,1-8.27-8.26V486.68a8.27,8.27,0,0,1,4.66-7.44,8.35,8.35,0,0,1,3.61-.82H715.88A8.26,8.26,0,0,1,724.14,486.68Z" fill="#393d4e"/><path d="M648.59,540.85a23.21,23.21,0,1,0-24.66-.78l-10.68,45.6a11.44,11.44,0,0,0,11.14,14h21.8a11.44,11.44,0,0,0,11.23-13.63Z" opacity="0.2"/><path d="M715.25,478.42H550.46a8.35,8.35,0,0,0-3.61.82l23.81-17.53H697.84Z" fill="#393d4e"/><path d="M715.25,478.42H550.46a8.35,8.35,0,0,0-3.61.82l23.81-17.53H697.84Z" opacity="0.4"/><path d="M573.54,473.16h13.35a7.52,7.52,0,0,0,7.52-7.52v-13a41,41,0,0,1,41-41h0a41,41,0,0,1,41,41v12a8.51,8.51,0,0,0,8.51,8.51h9.66a8.51,8.51,0,0,0,8.51-8.51V451.38A67.33,67.33,0,0,0,635.84,384h-1.2A68.62,68.62,0,0,0,566,452.66v13A7.52,7.52,0,0,0,573.54,473.16Z" fill="#393d4e"/><path d="M231.22,245.11s-9.9-6.19-22-22.9c0,0-1.11-2.61,3-4.4l4.89-2.38s1-.59,1.66,0c0,0,7.16,9.57,17.68,13.59C236.48,229,227.82,237.68,231.22,245.11Z" fill="#393d4e"/><path d="M246.38,240.4s-4.82-11.08-9.71-11.37a0,0,0,0,1,0-.08c.92-.4,5.08-2.71,4.94-11.31a23.4,23.4,0,0,0,4.78.55S250.71,225.48,246.38,240.4Z" fill="#393d4e"/><g opacity="0.5"><path d="M231.22,245.11s-9.9-6.19-22-22.9c0,0-1.11-2.61,3-4.4l4.89-2.38s1-.59,1.66,0c0,0,7.16,9.57,17.68,13.59C236.48,229,227.82,237.68,231.22,245.11Z" fill="#fff"/><path d="M246.38,240.4s-4.82-11.08-9.71-11.37a0,0,0,0,1,0-.08c.92-.4,5.08-2.71,4.94-11.31a23.4,23.4,0,0,0,4.78.55S250.71,225.48,246.38,240.4Z" fill="#fff"/></g><polygon points="243.91 249.75 244.98 338.22 293.57 326.49 294.25 243.03 243.91 249.75" fill="#fff"/><path d="M401.1,592.6s1.54,19.8,9.9,31.87L483.71,596s-2.78-16.71-21.66-12.69c0,0-23.82,3.72-35.89-1.23C426.16,582.08,418.11,592,401.1,592.6Z" fill="#393d4e"/><path d="M411,624.47l1.43,2.43a3.83,3.83,0,0,0,4.71,1.62l65-25.9a3.83,3.83,0,0,0,2.19-4.82l-.64-1.8Z" fill="#1d90f4"/><path d="M199.43,174.18c-5.79,11.7-47.53,11-60,10.8-4.5-.11-10-.49-14.46-.22l-4.24.41c-21.9,2.7-36.56,18.88-42.31,39.56a74.19,74.19,0,0,0-2.26,11.42,25,25,0,0,1-4.29,11c-4.63,6.54-13,9.44-20.74,9.13C63.74,256.46,74,248.9,75.28,236c3.24-33.17,23.82-56.31,58.39-55.59,5.62,0,11.79-.12,17.4-.56,11.44-.88,23.07-1.85,34-5.17,2.68-1,5.82-1.87,7.42-4.1l7,3.57Z" fill="#1d90f4"/><path d="M240.05,225.79a7.19,7.19,0,0,1-3.48,3.23c-9.29-3.09-17.88-13.46-17.88-13.46V194.21l7.23-1.16,9.84,2.86,3.66,12.54,2,7C242.12,220.5,241.24,223.75,240.05,225.79Z" fill="#f9b499"/><path d="M240.05,225.79c-4.59-2-17.12-8.79-14.71-23.94l14.08,6.6,2,7C242.12,220.5,241.24,223.75,240.05,225.79Z" fill="#f7a48b"/><path d="M222.62,180.44h6.43a0,0,0,0,1,0,0v15.47a0,0,0,0,1,0,0h-6.43a6.87,6.87,0,0,1-6.87-6.87v-1.72A6.87,6.87,0,0,1,222.62,180.44Z" fill="#f9b499"/><rect x="225.34" y="147.33" width="42.08" height="70.86" rx="18.7" fill="#f9b499"/><path d="M267.42,178.24v-9.87s-7.11-10.21-19.8-9.28c0,0-9.59-.31-12.69,6.19,0,0,4,21.17-12.53,36.57a34,34,0,0,0,2.94-13.68s-1.58,2.71-6.28,6.35c-5.43,4.22-15,9.71-31.19,13.73a96.08,96.08,0,0,1-23.22,2.82h-25s-18.32-.31-30.39,15.47c0,0-18.25,38.37-58.17,29.71l.68,0h0c4.75.16,31.63-.64,42.76-38.1,0,0,3.6-22,32.35-22.28l30.92-1.24s24.76,1.24,37.45-29.08c0,0,10.21-27.19,33.72-28.76,0,0,16.09-2.81,23.52,7.41,0,0,18.57.61,20.42,16.71C273,161,274.85,171.09,267.42,178.24Z" fill="#1d90f4"/><path d="M219.06,194.52l-.26,20.91c-.67-.59-1.66,0-1.66,0l-5.66,2.76c-3.33,1.86-2.23,4-2.23,4l-18.56,10.1c-9.59,6.7-5,25.21-5,25.21-16.42-6.15-32.47,37.72-32.47,37.72a99.74,99.74,0,0,1-7.67,15.69A68.12,68.12,0,0,1,84,344c-.67,0-1.33-.08-2-.13a54.74,54.74,0,0,1-48.19-40.74c-10.67-40.41,17.31-46.83,17.31-46.83,39.92,8.66,58.17-29.71,58.17-29.71,12.07-15.78,30.39-15.47,30.39-15.47h23.05a108.77,108.77,0,0,0,35.37-5.83C208.27,201.75,214.89,197.76,219.06,194.52Z" fill="#1d90f4"/><path d="M219.06,194.52l-.26,20.91c-.67-.59-1.66,0-1.66,0l-5.66,2.76c-3.33,1.86-2.23,4-2.23,4l-18.56,10.1c-9.59,6.7-5,25.21-5,25.21-16.42-6.15-32.47,37.72-32.47,37.72a99.74,99.74,0,0,1-7.67,15.69A68.12,68.12,0,0,1,84,344c-.67,0-1.33-.08-2-.13a54.74,54.74,0,0,1-48.19-40.74c-10.67-40.41,17.31-46.83,17.31-46.83,39.92,8.66,58.17-29.71,58.17-29.71,12.07-15.78,30.39-15.47,30.39-15.47h23.05a108.77,108.77,0,0,0,35.37-5.83C208.27,201.75,214.89,197.76,219.06,194.52Z" opacity="0.3"/><path d="M51.13,256.25a42.79,42.79,0,0,0,47.94-5.85c4.65-3.52,7.58-8.65,11.62-12.74a49.25,49.25,0,0,1,32.15-14c19-.86,38.61-3.81,55.51-12.9,6.66-3.72,12.71-9,15.85-16.1-8.62,22.79-43.72,29.62-65.37,31.61-13.34.06-26.49,3.79-36.12,13.41-4.14,4.11-7.25,9.2-12,12.68C86.52,264,66.86,266,51.13,256.25Z" fill="#1d90f4"/><path d="M222.4,201.85s7.58-13.63,6.65-36.09c0,0-2.47-9.46,13.62-11.93,0,0,36.82-8.43,24.75,24.41v-9.87s-7.11-10.52-19.8-9.28c0,0-8.67-.62-12.69,6.19C234.93,165.28,239.27,186.76,222.4,201.85Z" opacity="0.3"/><path d="M206.16,311.64S217,341.37,232.46,338c0,0,17.32-3.42,48-20.12l18.43-8.66s6.94-4,6-17c0,0-6.19-25.28-11.29-14.8,0,0,.15,14.49-12.84,18.83l-43.91,13a1.79,1.79,0,0,1-.83.06c-1.12-.17-3.82-1.05-4.37-5.4Z" fill="#f9b499"/><path d="M185.71,257.52s.81,12.85,9.55,36.73l7.8,19.86s21.35,4,29.4-11.76l-16.71-46.08s-3.12-15.57-14.58-19.92a12.26,12.26,0,0,0-16.55,11.89A58.09,58.09,0,0,0,185.71,257.52Z" fill="#393d4e"/><path d="M185.71,257.52s.81,12.85,9.55,36.73l7.8,19.86s21.35,4,29.4-11.76l-16.71-46.08s-3.12-15.57-14.58-19.92a12.26,12.26,0,0,0-16.55,11.89A58.09,58.09,0,0,0,185.71,257.52Z" fill="#fff" opacity="0.5"/><path d="M643,540.85a23.21,23.21,0,1,0-24.66-.78l-10.68,45.6a11.44,11.44,0,0,0,11.14,14h21.8a11.44,11.44,0,0,0,11.23-13.63Z" fill="#393d4e"/><path d="M643,540.85a23.21,23.21,0,1,0-24.66-.78l-10.68,45.6a11.44,11.44,0,0,0,11.14,14h21.8a11.44,11.44,0,0,0,11.23-13.63Z" opacity="0.4"/><polygon points="673.95 614.57 624.18 614.57 561.51 478.42 611.68 478.42 673.95 614.57" fill="#fff" opacity="0.2"/><polygon points="714.77 614.57 687.55 614.57 625.93 478.42 652.72 478.42 714.77 614.57" fill="#fff" opacity="0.2"/><polygon points="165.21 561.3 165.03 562.62 164.82 564.18 164.57 566.03 163.51 573.79 163.4 574.63 162.29 582.75 162.18 583.62 157.79 615.82 157.67 616.69 155.41 633.3 108.74 633.3 108.1 628.58 107.98 627.73 107.63 625.19 107.52 624.36 105.57 610.04 105.44 609.06 101.08 577.01 100.94 576 100.15 570.21 98.94 561.3 165.21 561.3" fill="#1d90f4"/><g opacity="0.2"><polygon points="165.21 561.3 165.03 562.62 164.82 564.18 164.57 566.03 163.31 566.12 161.99 566.2 142.62 567.46 141.3 567.54 100.15 570.21 98.94 561.3 165.21 561.3"/></g><path d="M171.12,561.69a460.59,460.59,0,0,1-78.08,0V554.6h78.08Z" fill="#1d90f4"/><path d="M153.34,471c-2.44,2.92-4.2,13.74-8.87,15.48-3.21,1.2-4.91-3.44,1.31-9.3a24.13,24.13,0,0,0,6.56-11A89.19,89.19,0,0,0,148,452.06c-3.59,3.32-9.34,8-11,5.77-1.79-2.45,3.57-10.17,6.56-14.13a24.4,24.4,0,0,0-4.65-5.19A14.57,14.57,0,0,0,129,435a13,13,0,0,0-7.48,2.73c3.2,6.33,7.92,17,4.61,19.51-3.07,2.29-7.52-6.58-10.3-13.2-3.92,6.05-6.55,14.35-7.69,22.35a14.16,14.16,0,0,0,4.38,4.74c6.07,4.36,13.28,13.17,9.67,15.13s-7.36-3.21-10-7.83a18.66,18.66,0,0,0-4.6-5.55c-.06,1.4-.06,2.77,0,4.09,1,25.16,25.52,25.15,25.52,25.15S157.68,496.46,153.34,471Zm-30.93.5c-2.43,0-6.3-4.57-8.11-7.09s-.36-4.26,1.38-3.78l.07,0C118.2,461.42,125.57,471.56,122.41,471.53Zm21.44-6,.07,0c1.74-.49,3.18.68,2.36,2.9-1.08,2.92-2.5,4.07-4.68,3C140.23,470.67,141.4,466.23,143.85,465.5Z" fill="#393d4e"/><path d="M130.44,464.73c2.16,11,1.46,22.38.64,33.49-.88,11.88-2.06,23.77-1.61,35.7A100,100,0,0,0,132.16,554c.14.56,1,.32.87-.24-5.84-23.61-.46-47.65-.29-71.52a88,88,0,0,0-1.44-17.75c-.11-.57-1-.33-.86.24Z" fill="#1d90f4"/><path d="M119.4,502.25c-.25,3.8,4.71,13.57,2,17.73-1.89,2.86-6,.12-4.43-8.28a24.25,24.25,0,0,0-1.2-12.76,90.06,90.06,0,0,0-11.88-8.83c-.94,4.79-2.82,12-5.47,11.14-2.89-.92-3.12-10.32-3-15.28a24.45,24.45,0,0,0-6.81-1.45,14.62,14.62,0,0,0-10,3,13,13,0,0,0-4.43,6.61c6.32,3.23,16.45,9.1,15.23,13-1.13,3.66-9.95-.88-16.1-4.58.4,7.19,3.17,15.45,7,22.58a14.16,14.16,0,0,0,6.34,1.25c7.48-.06,18.49,2.81,16.74,6.51s-7.85,1.75-12.74-.4a18.56,18.56,0,0,0-7-1.76c.78,1.16,1.58,2.27,2.4,3.3,15.61,19.76,35.45,5.27,35.45,5.27S137.9,520.23,119.4,502.25ZM94.72,520.89c-2,1.42-7.79,0-10.74-.94s-2.8-3.22-1.11-3.86l.07,0C85.35,515.22,97.28,519.05,94.72,520.89Zm13.75-17.51,0-.06c1.12-1.42,3-1.32,3.61,1,.85,3,.38,4.76-2,5.16C108.6,509.69,106.93,505.42,108.47,503.38Z" fill="#393d4e"/><path d="M97.15,510.63c5.77,5.31,11.49,10.83,16.15,17.16a86.57,86.57,0,0,1,8.81,15.65c1.77,3.87,3.45,7.78,5.18,11.67.23.53,1,.07.77-.45-2.83-6.39-5.48-12.91-8.79-19.07a75.9,75.9,0,0,0-10.92-15.17c-3.35-3.65-6.93-7.07-10.57-10.42-.42-.39-1.06.24-.63.63Z" fill="#1d90f4"/><path d="M140.76,543.85s19.74,14.63,35.49-5c.82-1,1.63-2.13,2.42-3.29a18.54,18.54,0,0,0-7,1.72c-4.91,2.11-11,4-12.74.31s9.31-6.51,16.78-6.4a14.29,14.29,0,0,0,6.35-1.2c3.84-7.11,6.67-15.34,7.12-22.54-6.18,3.66-15,8.14-16.14,4.47-1.19-3.95,9-9.74,15.33-12.93a13.14,13.14,0,0,0-4.38-6.65,14.61,14.61,0,0,0-10-3,24.52,24.52,0,0,0-6.83,1.4c.05,5-.24,14.36-3.14,15.26-2.66.83-4.48-6.38-5.39-11.18a88.49,88.49,0,0,0-11.94,8.75,24.12,24.12,0,0,0-1.3,12.75c1.52,8.41-2.61,11.13-4.48,8.25-2.71-4.18,2.31-13.91,2.1-17.72C124.37,524.64,140.76,543.85,140.76,543.85Zm38.6-23,.08,0c1.69.64,1.83,2.89-1.14,3.85s-8.77,2.3-10.75.87C165,523.75,177,520,179.36,520.86Zm-27.12-6.81c-2.4-.42-2.86-2.2-2-5.18.66-2.28,2.51-2.36,3.62-.93l0,.06C155.45,510.05,153.75,514.31,152.24,514.05Z" fill="#393d4e"/><path d="M164.56,514.7c-11.93,12-21.4,25.84-30.57,40-.31.48.46.93.78.45,9.12-14.05,18.55-27.87,30.43-39.78a.45.45,0,0,0-.64-.63Z" fill="#1d90f4"/><path d="M171.12,554.6c0,.72-17.48,1.31-39,1.31s-39-.59-39-1.31,17.48-1.3,39-1.3S171.12,553.88,171.12,554.6Z" fill="#1d90f4"/><g opacity="0.2"><path d="M171.12,554.6c0,.72-17.48,1.31-39,1.31s-39-.59-39-1.31,17.48-1.3,39-1.3S171.12,553.88,171.12,554.6Z"/></g></svg>